<svg xmlns="http://www.w3.org/2000/svg" viewBox="0 0 128 128" height="128" width="128"><circle r="64" cy="64" cx="64" fill-rule="evenodd"/><path d="M52.177 13.017v2.6c-10.642 2.745-15.963 12.808-15.963 30.19 0 18.828 6.62 29.903 19.863 33.226V37.068c0-6.115.385-10.58 1.156-13.398.77-2.817 2.467-5.296 5.092-7.44 2.624-2.142 5.79-3.213 9.498-3.213 6.5 0 12.53 3.057 18.093 9.173 5.56 6.115 8.342 14.084 8.342 23.907 0 9.197-2.853 17.407-8.56 24.63-5.705 7.222-14.312 11.34-25.82 12.35v29.686h-7.8V83.077c-10.017-.866-18.046-4.61-24.09-11.23-6.042-6.622-9.063-15.23-9.063-25.822 0-9.534 2.744-17.323 8.234-23.366 5.488-6.044 12.494-9.258 21.017-9.643zm11.7 66.016C79.046 76.77 86.63 66.97 86.63 49.636c0-7.993-1.626-14.698-4.876-20.115-3.25-5.416-7.066-8.125-11.448-8.125-1.59 0-2.925.566-4.01 1.697a7.514 7.514 0 0 0-2.02 4.01c-.266 1.54-.398 4.574-.398 9.1z" font-weight="400" font-size="2050.278" font-family="Times New Roman" fill="#fff"/><path d="M94.88 80.823h-2.423c-3.634.802-4.59.987-8.925 1.356l-.32 1.787.766.123c2.742.432 3.698 1.295 3.698 3.082 0 .617-.064.987-.128 1.54l-4.143 22.07h5.864l2.868-15.473c.638-3.33 1.403-5.795 2.23-7.213 1.212-2.034 2.87-3.144 4.59-3.144.64 0 .957.124 2.36.863 1.21.617 1.785.802 2.805.802 2.422 0 4.143-1.356 4.143-3.33 0-1.91-1.466-3.02-4.08-3.02-3.442 0-6.566 1.542-10.135 4.994l.83-4.44z" style="line-height:125%;-inkscape-font-specification:'TeX Gyre Bonum Italic';text-align:start" font-family="TeX Gyre Bonum" font-style="italic" font-weight="400" font-size="144" letter-spacing="0" word-spacing="0" fill="#fff"/></svg>