<svg xmlns="http://www.w3.org/2000/svg" width="106" height="50" viewBox="0 0 106 50.000001"><g font-weight="400" fill="#575757"><path d="M15.663 0v1.303c-5.334 1.376-8 6.42-8 15.134 0 9.438 3.318 14.99 9.955 16.655V12.057c0-3.066.193-5.305.58-6.717.386-1.412 1.237-2.655 2.552-3.73C22.066.538 23.653 0 25.51 0c3.26 0 6.283 1.533 9.07 4.598 2.79 3.066 4.182 7.06 4.182 11.984 0 4.61-1.43 8.726-4.29 12.346-2.86 3.62-7.175 5.685-12.943 6.19v14.882h-3.912V35.12c-5.02-.435-9.045-2.312-12.074-5.63C2.514 26.17 1 21.856 1 16.546c0-4.78 1.376-8.683 4.127-11.712C7.88 1.804 11.39.194 15.663 0zm5.866 33.092c7.602-1.134 11.403-6.046 11.403-14.736 0-4.006-.814-7.368-2.444-10.083S26.946 4.2 24.75 4.2c-.796 0-1.465.283-2.01.85a3.767 3.767 0 0 0-1.012 2.01c-.133.773-.2 2.293-.2 4.562z" font-size="2050.278" font-family="Times New Roman"/><path d="M37.07 33.99h-1.215c-1.822.4-2.3.494-4.474.68l-.16.896.385.062c1.374.216 1.853.648 1.853 1.544 0 .31-.032.495-.064.773l-2.077 11.062h2.94l1.438-7.756c.32-1.667.703-2.903 1.118-3.614.607-1.02 1.438-1.576 2.3-1.576.32 0 .48.062 1.183.433.608.31.895.4 1.406.4 1.215 0 2.077-.678 2.077-1.667 0-.958-.736-1.514-2.046-1.514-1.725 0-3.29.772-5.08 2.503l.415-2.225zM52.835 33.712c-2.684 0-4.985.957-6.838 2.842-1.694 1.762-2.716 4.203-2.716 6.582 0 3.677 2.685 6.15 6.68 6.15 5.304 0 9.522-4.11 9.522-9.24 0-3.832-2.62-6.334-6.647-6.334zm-.192 1.297c.99 0 2.14.494 2.685 1.112.575.68.894 1.854.894 3.182 0 1.854-.64 4.326-1.533 5.84-1.088 1.854-2.654 2.843-4.507 2.843-2.43 0-3.803-1.607-3.803-4.42 0-2.16.895-4.788 2.173-6.457 1.087-1.36 2.525-2.1 4.09-2.1zM70.06 33.712c-2.683 0-4.984.957-6.837 2.842-1.694 1.762-2.717 4.203-2.717 6.582 0 3.677 2.685 6.15 6.68 6.15 5.304 0 9.522-4.11 9.522-9.24 0-3.832-2.62-6.334-6.647-6.334zm-.19 1.297c.99 0 2.14.494 2.683 1.112.576.68.895 1.854.895 3.182 0 1.854-.64 4.326-1.534 5.84-1.086 1.854-2.652 2.843-4.505 2.843-2.43 0-3.804-1.607-3.804-4.42 0-2.16.895-4.788 2.173-6.457 1.085-1.36 2.523-2.1 4.09-2.1zM78.563 49.007h2.94L83.74 37.05c1.534-1.145 3.42-1.886 4.73-1.886 1.405 0 2.172.68 2.172 1.885 0 .43-.064.864-.256 1.945L88.5 49.007h2.94L93.68 37.05c1.66-1.206 3.355-1.886 4.633-1.886 1.407 0 2.27.74 2.27 1.946 0 .402-.032.65-.192 1.484l-1.118 5.9c-.096.558-.192 1.423-.192 1.732 0 1.792 1.214 3.06 2.94 3.06 1.438 0 2.94-.65 4.058-1.762l-.575-.773c-.766.68-1.277.928-1.916.928-.927 0-1.534-.618-1.534-1.607 0-.37.096-1.204.256-2.07l1.086-5.654c.128-.803.192-1.266.192-1.668 0-1.854-1.502-2.966-3.995-2.966-2.078 0-3.93.68-6.008 2.224-.51-1.514-1.79-2.224-3.93-2.224-1.79 0-3.388.556-5.625 1.915l.288-1.637H83.1c-1.82.4-2.3.494-4.473.68l-.16.896.384.062c1.375.216 1.854.648 1.854 1.544 0 .31-.032.495-.064.773l-2.077 11.062z" style="line-height:125%;-inkscape-font-specification:'TeX Gyre Bonum Italic';text-align:start" font-style="italic" font-size="144" font-family="TeX Gyre Bonum" letter-spacing="0" word-spacing="0"/></g></svg>