<svg xmlns="http://www.w3.org/2000/svg" width="32" height="32" viewBox="0 0 32 32.000001"><path d="M0 0v32h32V0H0z" fill="#fff"/><path d="M0 16V0h32v32H0V16zm8.67 5.782a4.282 4.282 0 0 0 2.177-1.184 4.21 4.21 0 0 0 .774-1.035l.12-.218.106.226c.535 1.125 1.64 1.944 2.92 2.164.4.07 1.202.07 1.583 0 .73-.13 1.49-.488 2.18-1.028.113-.086.516-.466.898-.843l.693-.686.258.278c1.404 1.514 2.61 2.218 3.982 2.322 1.994.15 3.577-.883 4.208-2.747.174-.515.227-.887.228-1.58 0-.71-.043-1.013-.217-1.535-.46-1.374-1.483-2.3-2.877-2.61a4.743 4.743 0 0 0-.797-.08c-.866-.03-1.395.09-2.203.49-.74.37-1.328.86-2.173 1.814l-.41.462-.223-.255c-.37-.422-1.084-1.14-1.35-1.353-.688-.554-1.436-.93-2.172-1.09-.37-.08-1.193-.097-1.61-.033-1.32.205-2.383.99-2.924 2.157a2.11 2.11 0 0 1-.153.298c-.008 0-.064-.095-.124-.21-.395-.763-1.166-1.4-2.016-1.662-.5-.155-1.223-.2-1.798-.113-.59.09-1.114.327-1.527.695-.19.17-.192.17-.19.082 0-.05.103-.672.228-1.385l.227-1.297 2.53-.016 2.53-.017.008-.93.008-.93-3.414.01-3.414.01-.585 3.203c-.32 1.762-.586 3.214-.586 3.227 0 .013.494.023 1.1.023h1.1l.136-.164c.293-.355.627-.578 1.027-.682.314-.082.933-.09 1.213-.015.712.19 1.23.723 1.425 1.47.094.356.093.935 0 1.282-.115.43-.293.746-.58 1.032-.472.47-1.02.66-1.673.58-.865-.11-1.432-.612-1.638-1.45l-.07-.288-1.21-.01-1.207-.01v.15c0 .42.185 1.12.396 1.507.624 1.143 1.773 1.838 3.354 2.03.41.05 1.378.015 1.733-.062zm6.365-2.39a1.71 1.71 0 0 1-1.24-1.094 2.29 2.29 0 0 1-.11-1.022c.065-.506.252-.9.596-1.248.332-.336.682-.475 1.19-.474.818 0 1.663.48 2.796 1.582l.437.425-.484.478c-.7.69-1.25 1.052-1.94 1.278-.25.082-.354.1-.67.11-.253.01-.44 0-.575-.035zm9.184 0c-.778-.16-1.718-.77-2.45-1.588l-.215-.24.305-.32c.88-.924 1.615-1.453 2.253-1.62a2.66 2.66 0 0 1 1.028-.03c.61.126 1.126.61 1.334 1.25.092.285.114.9.043 1.203-.085.365-.247.66-.498.908-.25.247-.475.37-.796.44a3.17 3.17 0 0 1-1.005 0z"/></svg>