<svg xmlns="http://www.w3.org/2000/svg" width="32" height="32" viewBox="0 0 32 32.000001"><path d="M6.938 21.842c-1.582-.19-2.73-.886-3.355-2.03-.21-.386-.395-1.088-.395-1.508v-.15l1.208.01 1.208.01.07.29c.128.52.388.9.797 1.163.367.237.893.347 1.365.284.48-.063.793-.22 1.15-.578.287-.286.466-.603.58-1.032a2.97 2.97 0 0 0 0-1.28c-.195-.75-.713-1.282-1.424-1.472-.28-.074-.9-.067-1.213.015-.4.104-.734.327-1.027.682l-.134.164H4.664c-.606 0-1.1-.01-1.1-.024 0-.013.265-1.465.587-3.226l.586-3.204 3.414-.01 3.413-.01-.008.93-.008.93-2.53.016-2.53.016-.226 1.297a40.044 40.044 0 0 0-.227 1.385c-.002.088 0 .087.19-.082a2.922 2.922 0 0 1 1.526-.695c.574-.087 1.298-.04 1.797.113.85.262 1.62.9 2.016 1.662.06.116.116.21.124.21.01 0 .078-.134.154-.298.54-1.167 1.606-1.952 2.925-2.156.417-.064 1.24-.047 1.61.034.736.16 1.484.535 2.172 1.09.266.213.98.93 1.35 1.352l.223.256.41-.464c.845-.955 1.432-1.445 2.173-1.813.808-.403 1.337-.52 2.203-.49.73.024 1.21.14 1.78.428 1.06.533 1.814 1.59 2.054 2.874.086.456.078 1.432-.014 1.89a4.51 4.51 0 0 1-.687 1.686c-.785 1.178-2.13 1.79-3.68 1.672-1.37-.104-2.578-.808-3.982-2.323l-.257-.277-.693.685c-.38.377-.784.757-.896.844-.69.538-1.45.897-2.18 1.027-.382.068-1.183.067-1.585 0-1.28-.22-2.384-1.04-2.92-2.164l-.106-.225-.12.217a4.21 4.21 0 0 1-.773 1.036 4.282 4.282 0 0 1-2.176 1.185c-.355.077-1.322.11-1.733.06zm9.343-2.526c.69-.226 1.24-.59 1.94-1.278l.483-.477-.437-.424c-1.133-1.1-1.977-1.58-2.795-1.582-.508 0-.858.138-1.19.474-.343.35-.53.742-.595 1.248-.132 1.027.43 1.906 1.35 2.115.134.032.322.043.574.035.316-.01.42-.027.67-.11zm8.944.076c.32-.068.545-.192.795-.438.4-.396.56-.848.534-1.516-.022-.608-.184-1.002-.574-1.395-.334-.337-.758-.493-1.324-.488-.85.01-1.666.5-2.796 1.687l-.305.32.215.24c.595.666 1.416 1.255 2.067 1.484.424.15.984.192 1.387.106z" fill="#575757"/></svg>