<svg xmlns="http://www.w3.org/2000/svg" width="32" height="32" viewBox="0 0 32 32.000001"><path d="M23.176 6.694a.753.753 0 0 0-.106.014c-.106.02-.736.08-1.4.136-.937.08-2.33.1-6.24.095-2.77-.006-5.602-.03-6.294-.053l-1.26-.043v.46c0 .527-.065.476.83.64 1.256.232 1.545.397 1.728.988.102.33.17 10.865.082 12.963l-.06 1.465-.204.214a1.877 1.877 0 0 1-.392.312c-.164.086-.877.252-1.724.4l-.26.047v.973l.294-.04c.16-.023 2.823-.06 5.914-.083 3.16-.023 6.436-.012 7.483.025 1.024.037 1.873.057 1.886.045.013-.01.1-.67.19-1.462.092-.79.237-1.988.324-2.658l.157-1.22h-.837L22.77 21.1c-.282.65-.624 1.357-.76 1.568-.33.515-.882.996-1.36 1.188-.383.154-.467.158-3.137.18-3.195.027-3.326.01-3.82-.504-.428-.445-.442-.578-.42-4l.018-2.964 1.966.007c2.148.007 2.407.043 2.787.376.26.23.41.557.565 1.23.057.25.135.573.172.715l.068.26h.968l-.02-2.018c-.012-1.11.004-2.584.036-3.276l.058-1.258h-.483c-.402 0-.49.02-.52.12-.02.067-.117.48-.218.915-.2.854-.38 1.26-.652 1.46-.3.22-.925.283-2.862.29l-1.862.008-.017-3.512-.018-3.512.15-.16.15-.16H16.7c2.02 0 3.237.028 3.408.075.695.193 1.24 1.086 1.672 2.736l.257.984h.862l.04-.638c.024-.35.09-1.414.146-2.362.056-.95.12-1.825.14-1.947.025-.16.028-.205-.05-.203z" fill="#575757"/></svg>