<svg xmlns="http://www.w3.org/2000/svg" xmlns:xlink="http://www.w3.org/1999/xlink" width="32" height="32" viewBox="0 0 32 32.000001"><defs><linearGradient xlink:href="#a" id="b" x1="-1027.1" y1="827.207" x2="-1022.887" y2="245.359" gradientUnits="userSpaceOnUse"/><linearGradient id="a"><stop offset="0" stop-color="#dc5e05"/><stop offset="1" stop-color="#f5812f"/></linearGradient></defs><path fill="url(#b)" d="M-1307.923 248.303h580v580h-580z" transform="translate(72.16 -13.7) scale(.05517)"/><path d="M23.177 6.692a.753.753 0 0 0-.106.014c-.105.02-.735.08-1.4.137-.936.08-2.33.1-6.24.094-2.77-.004-5.6-.027-6.293-.05l-1.26-.045v.46c0 .528-.064.477.83.64 1.257.233 1.545.397 1.728.988.102.33.17 10.865.082 12.963l-.06 1.465-.203.213a1.877 1.877 0 0 1-.392.314c-.165.085-.878.25-1.725.4l-.258.047v.974l.292-.04c.16-.023 2.822-.06 5.913-.083 3.16-.022 6.436-.01 7.483.026 1.024.036 1.873.057 1.886.045.013-.01.1-.67.19-1.46.092-.793.237-1.99.323-2.66l.158-1.22h-.837l-.516 1.187c-.283.652-.626 1.358-.76 1.57-.332.514-.883.995-1.36 1.187-.384.153-.468.158-3.138.18-3.195.027-3.326.01-3.82-.504-.427-.446-.44-.578-.42-4l.018-2.964 1.966.007c2.147.008 2.407.043 2.786.376.26.228.41.555.565 1.23.056.25.134.57.17.713l.07.26h.966l-.02-2.018a74.4 74.4 0 0 1 .036-3.276l.057-1.26h-.484c-.402 0-.49.02-.52.12-.02.068-.117.48-.218.915-.198.854-.38 1.26-.652 1.46-.3.22-.925.283-2.862.29l-1.862.01-.018-3.513-.018-3.512.15-.16.152-.16H16.7c2.02 0 3.24.026 3.41.074.694.193 1.24 1.085 1.67 2.735l.258.982h.86l.044-.638c.023-.35.088-1.414.144-2.362.057-.948.12-1.824.14-1.947.026-.16.03-.204-.05-.203z" fill="#fff"/></svg>