<svg xmlns="http://www.w3.org/2000/svg" width="32" height="32" viewBox="0 0 32 32.000001"><path d="M24.306 0C26.41 0 27.77 0 28.7.01V0h-4.394zm-.892 4.85h-.22c-.755.02-1.148.067-1.73.208-2.22.537-3.733 2.127-4.19 4.406-.152.746-.155.825-.174 3.11l-.02 2.187-2.083.017-2.085.016v4.78l2.085.017 2.084.016.01 6.195.008 6.197h-5.863 10.878l.008-6.196.008-6.195 2.053-.01c1.13 0 2.063-.018 2.075-.03.028-.03.63-4.647.617-4.722-.01-.048-.197-.054-2.377-.07l-2.367-.015v-1.86c.002-2 .005-2.03.174-2.477.144-.38.512-.74.916-.89.437-.163.56-.175 2.25-.193l1.582-.017.01-2.128c.005-1.68-.002-2.135-.033-2.16-.1-.08-2.432-.2-3.613-.19zM22.114 32h1.974-1.975z" fill="#575757" fill-rule="evenodd"/></svg>