<svg xmlns="http://www.w3.org/2000/svg" xmlns:xlink="http://www.w3.org/1999/xlink" width="32" height="32" viewBox="0 0 32 32.000001"><defs><linearGradient id="a"><stop offset="0" stop-color="#af2c26"/><stop offset="1" stop-color="#c73c2f" stop-opacity=".941"/></linearGradient><linearGradient id="b"><stop offset="0" stop-color="#c0382d"/><stop offset="1" stop-color="#d64735"/></linearGradient><linearGradient id="c"><stop offset="0" stop-color="#a82824"/><stop offset="1" stop-color="#b32f28"/></linearGradient><linearGradient id="d"><stop offset="0" stop-color="#a82824"/><stop offset="1" stop-color="#db4936"/></linearGradient><linearGradient xlink:href="#a" id="f" gradientUnits="userSpaceOnUse" x1="4120.16" y1="1790.531" x2="4385.577" y2="2018.573"/><linearGradient xlink:href="#b" id="g" gradientUnits="userSpaceOnUse" x1="4321.607" y1="1041.826" x2="4502.321" y2="981.469"/><linearGradient xlink:href="#c" id="h" gradientUnits="userSpaceOnUse" x1="3986.062" y1="1051.352" x2="4251.732" y2="1465.514"/><linearGradient xlink:href="#d" id="e" gradientUnits="userSpaceOnUse" gradientTransform="matrix(.0282 0 0 .0282 -165.817 964.2)" x1="6201.82" y1="2912.496" x2="6460.722" y2="2570.169"/></defs><g fill-rule="evenodd"><path fill="url(#e)" d="M0 1020.362h32v31.985H0z" transform="translate(0 -1020.362)"/><path d="M4190.72 1771.656c-34.83 0-67.683 6.952-96.626 19.25 3.3-.027 6.607-.017 9.937.063 141.192 3.364 254.918 101.684 254.032 219.624-.023 3-.142 5.97-.312 8.938h23.094c13.18-22.606 20.593-47.91 20.593-74.657 0-95.663-94.344-173.218-210.718-173.218z" fill="url(#f)" transform="translate(-109.345 -24.954) scale(.0282)"/><path d="M4058 978.625c4.033 2.988 8.13 5.92 12.313 8.813 150.742 104.197 341.044 104.206 425.062.03a178.88 178.88 0 0 0 6.688-8.843H4058z" fill="url(#g)" transform="translate(-109.345 -24.954) scale(.0282)"/><path d="M4081.563 999.844c-21.347-.14-42.37 3.954-62.25 12.687-63.052 27.697-99.302 95.497-101.938 174.814 11.212-75.266 56.854-129.62 123.375-134.906 95.526-7.593 197.907 88.882 228.656 215.468 22.076 90.88 1.204 172.55-47.656 214.22 1.076-.444 2.15-.875 3.22-1.345 97.88-42.993 131.202-182.665 74.405-311.968-45.26-103.038-134.068-168.423-217.813-168.968z" fill="url(#h)" transform="translate(-109.345 -24.954) scale(.0282)"/><path fill="#a82824" d="M23.044 4.486h2.533V16.38h-2.533z"/><path fill="#a82824" d="M30.237 9.174v2.522h-11.9V9.174z"/><path d="M10.038 2.39c-2.325.002-3.843.103-5.237.335-2.01.336-3.457.94-4.546 1.9l-.23.203V4.78v12.58l.004.002.303.198c.976.636 2.34 1.148 3.85 1.445.673.132.967.176 2.108.316.074.01.13.027.125.037-.236.437-.345.778-.39 1.22-.097.983.252 2.102 1.108 3.547l.077.13-.71.033c-2.87.14-4.848.482-6.212 1.07l-.257.11v-.007l-.004.002v2.647l.197-.226c.458-.523 1.138-1.03 1.89-1.407.838-.42 1.774-.7 2.86-.85.525-.072 1.742-.086 2.322-.027 2.64.27 4.815 1.412 5.93 3.114.575.88.857 1.832.857 2.905v.392h-.01 2.993v-.833c0-1.97-.188-2.98-.775-4.17-.453-.92-1.084-1.575-2.8-2.916a109.26 109.26 0 0 1-1.1-.87c-.55-.444-1.303-1.195-1.548-1.546-.602-.86-.777-1.706-.516-2.486.227-.682.704-1.27 2.078-2.56 1.23-1.157 1.764-1.738 2.224-2.425.48-.718.754-1.402.873-2.187a8.89 8.89 0 0 0-.115-3.163 7.722 7.722 0 0 0-1.33-2.87c-.304-.41-.98-1.104-1.352-1.392-.13-.1-.22-.184-.204-.19a2.5 2.5 0 0 1 .33.02c.43.044 1.135.038 1.522-.013 1.07-.14 1.89-.5 2.71-1.19.28-.235.76-.713.76-.756 0-.014-.932-.025-2.145-.027-1.18-.002-2.933-.017-3.894-.033-.63-.01-1.21-.016-1.745-.016zm12.6 1.756V8.85h-4.673V11.373h4.68l-.004 2.347-.006 2.344H25.172l.007-2.345.007-2.347 2.343-.007 2.344-.008V8.85H25.168l.01-2.352.01-2.352h-2.55zm-17.35.043c.67-.012 1.318.15 2.02.488 1.33.645 2.515 1.9 3.308 3.51.473.96.723 1.76.874 2.798.074.508.102 1.43.057 1.88-.14 1.372-.628 2.575-1.44 3.546-.36.43-.9.862-1.38 1.104-.264.133-.728.29-1 .337a4.31 4.31 0 0 1-1.04.04c-.948-.105-1.902-.568-2.803-1.358-.39-.343-.864-.934-1.222-1.527-.76-1.26-1.3-2.91-1.496-4.565-.076-.643-.07-1.73.013-2.262.186-1.21.578-2.102 1.223-2.786.49-.52 1.07-.857 1.804-1.05a4.5 4.5 0 0 1 1.08-.155z" fill="#fff"/></g></svg>