<svg xmlns="http://www.w3.org/2000/svg" width="32" height="32" viewBox="0 0 32 32.000001"><path d="M10.02 2.365c-2.325 0-3.845.102-5.24.334-2.012.335-3.46.94-4.55 1.9L0 4.803v-.047 12.58l.303.198c.976.637 2.34 1.15 3.853 1.446.672.13.967.175 2.108.315.074.01.13.025.125.035-.237.438-.346.78-.39 1.222-.098.982.252 2.1 1.108 3.547l.076.127-.71.034c-2.873.142-4.852.483-6.217 1.072l-.257.11v-.01 2.648l.198-.225c.457-.523 1.137-1.03 1.89-1.407.84-.42 1.775-.7 2.862-.85.526-.072 1.744-.087 2.324-.027 2.643.272 4.818 1.413 5.934 3.116.576.88.857 1.832.857 2.905v.394h-.01 2.995v-.833c0-1.968-.188-2.98-.775-4.17-.454-.918-1.086-1.575-2.804-2.915-.363-.284-.857-.676-1.097-.87-.552-.444-1.306-1.196-1.55-1.547-.603-.86-.778-1.706-.517-2.486.228-.682.705-1.27 2.08-2.56 1.232-1.158 1.765-1.74 2.225-2.426.482-.72.755-1.403.875-2.188a8.884 8.884 0 0 0-.114-3.163 7.72 7.72 0 0 0-1.33-2.87c-.304-.41-.98-1.105-1.353-1.392-.13-.1-.22-.185-.204-.19.016-.01.165 0 .33.02a8.29 8.29 0 0 0 1.524-.014c1.07-.14 1.89-.5 2.713-1.192.28-.234.76-.712.76-.755 0-.014-.934-.026-2.147-.027-1.182 0-2.936-.016-3.897-.032-.63-.01-1.21-.016-1.747-.016zM22.63 4.12v4.706h-4.678V11.35h4.686l-.01 2.345-.01 2.345h2.54l.01-2.345.01-2.346 2.344-.01 2.346-.01V8.82h-4.71l.01-2.352.01-2.352h-2.55zm-17.363.043c.67-.01 1.32.15 2.02.49 1.335.644 2.52 1.9 3.313 3.51.473.96.723 1.76.875 2.8.074.506.102 1.428.056 1.88-.138 1.37-.627 2.574-1.44 3.545-.36.43-.9.862-1.38 1.104-.265.134-.73.29-1.002.337a4.335 4.335 0 0 1-1.04.04c-.95-.106-1.904-.57-2.805-1.36-.39-.342-.865-.933-1.223-1.527-.76-1.26-1.302-2.91-1.498-4.565-.076-.644-.07-1.73.013-2.263.188-1.21.58-2.103 1.225-2.787.49-.52 1.072-.857 1.805-1.05a4.5 4.5 0 0 1 1.08-.156z" fill="#575757" fill-rule="evenodd"/></svg>