<svg xmlns="http://www.w3.org/2000/svg" width="32" height="32" viewBox="0 0 32 32.000001"><path d="M16.016 4.148c-4.916 0-5.747.04-6.945.347-1.012.26-1.823.662-2.538 1.26-1.197 1.005-1.905 2.3-2.196 4.022-.16.948-.196 2.054-.196 6.22 0 4.893.042 5.727.348 6.92.263 1.023.657 1.818 1.258 2.532.95 1.127 2.113 1.8 3.685 2.135.82.174 1.64.226 4.02.252 3.498.04 6.993 0 8.008-.094 1.966-.178 3.436-.83 4.553-2.022 1.112-1.184 1.64-2.58 1.784-4.71.088-1.314.088-8.715 0-10.03-.134-1.985-.593-3.305-1.545-4.445-.99-1.186-2.306-1.902-4.025-2.193-.948-.16-2.037-.194-6.21-.194zM16 6.246c3.565 0 4.678.023 5.49.11 1.29.143 2.196.53 2.91 1.246.72.72 1.106 1.622 1.247 2.91.09.81.112 1.92.112 5.484 0 5.017-.045 5.784-.388 6.8-.228.676-.498 1.117-.973 1.59-.475.475-.917.744-1.592.972-.63.213-1.252.3-2.49.356-.852.037-7.858.035-8.745 0-1.43-.06-2.227-.224-3.002-.61a3.97 3.97 0 0 1-1.724-1.756c-.367-.77-.51-1.526-.574-3.053-.04-.974-.04-7.62 0-8.594.053-1.25.14-1.868.36-2.512.482-1.434 1.575-2.378 3.146-2.716.868-.188 1.872-.224 6.222-.224zm6.334 2.024c-.357 0-.714.137-.988.41a1.39 1.39 0 0 0 0 1.974c.214.214.52.368.793.4a1.4 1.4 0 0 0 1.182-.4 1.39 1.39 0 0 0 0-1.973 1.393 1.393 0 0 0-.988-.41zM16.06 9.926a6.01 6.01 0 0 0-4.44 1.87 6.04 6.04 0 0 0-1.076 6.876 6.207 6.207 0 0 0 2.382 2.563 6.164 6.164 0 0 0 3.183.835c.085-.01.282-.018.437-.027.574-.035 1.387-.25 1.996-.528 1.223-.557 2.315-1.623 2.913-2.843a6.08 6.08 0 0 0-.212-5.747c-1.024-1.73-2.87-2.87-4.842-2.988-.114-.01-.228-.01-.34-.01zM16 12.028c.263 0 .527.016.707.047a4 4 0 0 1 3.217 3.214 5.31 5.31 0 0 1 0 1.412 4 4 0 0 1-3.217 3.214c-.347.06-1.1.06-1.44 0-.78-.14-1.61-.59-2.153-1.165a4.06 4.06 0 0 1-1.04-2.046 5.31 5.31 0 0 1 0-1.413 4 4 0 0 1 3.218-3.213c.18-.03.444-.047.708-.047z" fill="#575757"/></svg>