<svg xmlns="http://www.w3.org/2000/svg" width="32" height="32" viewBox="0 0 32 32.000001"><path d="M8.188 25.71a2.28 2.28 0 0 1-1.866-1.712c-.077-.31-.077-15.683 0-15.995.203-.82.86-1.478 1.68-1.68.312-.078 15.684-.078 15.995 0 .822.202 1.478.86 1.68 1.68.078.312.078 15.684 0 15.995-.195.795-.793 1.415-1.605 1.666-.192.06-.798.065-7.94.07-4.25 0-7.826-.01-7.944-.025zm14.994-2.343c.08-.064.18-.164.223-.22.078-.106.078-.13.088-4.388l.01-4.283H21.78l.023.086c.12.447.155.775.154 1.476-.002.616-.016.807-.085 1.128-.518 2.405-2.297 4.184-4.705 4.705-.327.07-.506.084-1.167.084-.66 0-.84-.013-1.167-.084-2.407-.52-4.187-2.3-4.705-4.705-.07-.32-.084-.512-.085-1.13 0-.7.033-1.028.154-1.475l.023-.086H8.498v4.23c0 4.598-.01 4.364.214 4.574.256.24-.346.224 7.332.213l6.994-.01.144-.116zm-6.706-3.636c1.117-.158 2.074-.76 2.675-1.68a3.764 3.764 0 0 0-1.367-5.36 3.768 3.768 0 0 0-5.305 1.992 3.76 3.76 0 0 0 .37 3.367c.787 1.203 2.243 1.88 3.628 1.68zm6.69-7.596c.09-.064.203-.184.25-.267.083-.148.085-.174.086-1.472 0-.84-.014-1.36-.04-1.428a.93.93 0 0 0-.406-.416c-.096-.04-.404-.052-1.44-.052-1.23 0-1.325 0-1.462.074a.76.76 0 0 0-.382.45c-.023.084-.04.647-.04 1.385v1.243l.106.203a.597.597 0 0 0 .313.31l.207.108 1.322-.01 1.32-.01.166-.117z" fill="#575757"/></svg>