<svg xmlns="http://www.w3.org/2000/svg" width="32" height="32" viewBox="0 0 32 32.000001"><g fill="#575757"><path d="M13.54 10.46a5.643 5.643 0 0 0 0 8 1.414 1.414 0 0 0 2 0 1.414 1.414 0 0 0 0-2 2.822 2.822 0 0 1 0-4l2.8-2.8a2.822 2.822 0 0 1 4 0 2.822 2.822 0 0 1 0 4l-1.324 1.324a5.64 5.64 0 0 1 .394 3.596l.13-.12 2.798-2.8a5.643 5.643 0 0 0 0-7.998 5.643 5.643 0 0 0-7.998 0l-2.8 2.8z"/><path d="M18.46 21.54a5.643 5.643 0 0 0 0-8 1.414 1.414 0 0 0-2 0 1.414 1.414 0 0 0 0 2 2.822 2.822 0 0 1 0 4l-2.8 2.8a2.822 2.822 0 0 1-4 0 2.822 2.822 0 0 1 0-4l1.324-1.324a5.64 5.64 0 0 1-.394-3.596l-.13.12-2.798 2.8a5.643 5.643 0 0 0 0 7.998 5.643 5.643 0 0 0 7.998 0l2.8-2.8z"/></g></svg>