<svg xmlns="http://www.w3.org/2000/svg" width="32" height="32" viewBox="0 0 32 32.000001"><path d="M10.635 27.722a42.69 42.69 0 0 0-.106-1.332c-.17-1.868-.012-2.963 1.048-7.284l.95-3.877-.19-.724c-.27-1.038-.24-2.33.074-3.15.767-1.996 2.84-2.592 3.928-1.13.195.26.227.46.218 1.323-.01.86-.08 1.236-.462 2.456-.664 2.118-.81 2.753-.73 3.174.275 1.446 1.7 2.122 3.317 1.573.694-.235 1.742-1.27 2.232-2.2 1.017-1.936 1.365-5.08.753-6.812-.383-1.086-1.285-2.106-2.33-2.636-.934-.473-1.704-.625-3.157-.623-1.22 0-1.49.04-2.267.308-.992.343-2.19 1.09-2.724 1.698-1.46 1.66-2.1 4.01-1.57 5.756.13.42.384.964.568 1.206.184.243.335.567.336.72.003.46-.31 1.486-.496 1.622-.505.368-2.116-.877-2.637-2.038-.94-2.095-.842-4.557.264-6.678.914-1.753 2.19-2.982 4.038-3.885 1.616-.792 2.72-1.033 4.766-1.042 1.886-.01 2.756.157 4.142.786 1.788.81 3.14 2.093 3.96 3.752.81 1.638 1.008 3.26.652 5.333-.734 4.267-3.257 6.976-6.815 7.315-1.246.12-2.838-.443-3.548-1.253-.177-.2-.343-.327-.37-.283-.026.044-.284.978-.572 2.076-.676 2.573-1.213 3.722-2.703 5.787-.214.296-.564.332-.57.06z" fill="#575757"/></svg>