<svg xmlns="http://www.w3.org/2000/svg" xmlns:xlink="http://www.w3.org/1999/xlink" width="17" height="15" viewBox="0 0 17 15"><defs><linearGradient id="b"><stop offset="0" stop-color="#c8c8c8"/><stop offset="1" stop-color="#a9a9a9"/></linearGradient><linearGradient xlink:href="#a" id="d" x1="-142.25" y1="-1018.513" x2="-129.25" y2="-1018.513" gradientUnits="userSpaceOnUse"/><linearGradient id="a"><stop offset="0" stop-color="#878787"/><stop offset="1" stop-color="#757575"/></linearGradient><linearGradient xlink:href="#b" id="c" gradientUnits="userSpaceOnUse" gradientTransform="matrix(1.15385 0 0 1.44444 3.403 -1501.742)" x1="3.709" y1="1042.355" x2="3.772" y2="1051.352"/><linearGradient xlink:href="#a" id="e" gradientUnits="userSpaceOnUse" x1="-142.25" y1="-1018.513" x2="-129.25" y2="-1018.513"/><linearGradient xlink:href="#a" id="f" gradientUnits="userSpaceOnUse" x1="-142.25" y1="-1018.513" x2="-129.25" y2="-1018.513"/><linearGradient xlink:href="#a" id="g" gradientUnits="userSpaceOnUse" x1="-142.25" y1="-1018.513" x2="-129.25" y2="-1018.513"/><linearGradient xlink:href="#a" id="h" gradientUnits="userSpaceOnUse" x1="-142.25" y1="-1018.513" x2="-129.25" y2="-1018.513"/><linearGradient xlink:href="#a" id="i" gradientUnits="userSpaceOnUse" x1="-142.25" y1="-1018.513" x2="-129.25" y2="-1018.513"/><linearGradient xlink:href="#a" id="j" gradientUnits="userSpaceOnUse" x1="-142.25" y1="-1018.513" x2="-129.25" y2="-1018.513"/><linearGradient xlink:href="#a" id="k" gradientUnits="userSpaceOnUse" x1="-142.25" y1="-1018.513" x2="-129.25" y2="-1018.513"/><linearGradient xlink:href="#a" id="l" gradientUnits="userSpaceOnUse" x1="-142.25" y1="-1018.513" x2="-129.25" y2="-1018.513"/></defs><path fill-opacity=".51" fill-rule="evenodd" d="M0 0h17v15H0z"/><path fill="url(#c)" fill-rule="evenodd" d="M6.864 3.892h15v13h-15z" transform="translate(-5.864 -2.892)"/><g transform="translate(144.25 1025.513)" fill="url(#d)"><path fill="url(#e)" d="M-136.25-1018.513h1v1h-1z"/><path fill="url(#f)" d="M-142.25-1016.513h13v4h-13z"/><path fill="url(#g)" d="M-142.25-1018.513h5v2h-5z"/><path fill="url(#h)" d="M-134.25-1018.513h5v2h-5z"/><path fill="url(#i)" d="M-142.25-1022.513h13v3h-13z"/><path fill="url(#j)" d="M-138.25-1023.513h1v1h-1z"/><path fill="url(#k)" d="M-138.25-1024.513h5v1h-5z"/><path fill="url(#l)" d="M-134.25-1023.513h1v1h-1z"/></g></svg>