<svg xmlns="http://www.w3.org/2000/svg" xmlns:xlink="http://www.w3.org/1999/xlink" viewBox="0 0 17 13" height="13" width="17"><defs><linearGradient id="a"><stop offset="0" stop-color="#9a9a9a"/><stop offset="1" stop-color="#8d8d8d"/></linearGradient><linearGradient xlink:href="#b" id="e" gradientUnits="userSpaceOnUse" gradientTransform="translate(-20.25 5.53)" x1="4.64" y1="1039.347" x2="4.64" y2="1051.369"/><linearGradient id="b"><stop offset="0" stop-color="#a4a4a4"/><stop offset="1" stop-color="#b0b0b0"/></linearGradient><linearGradient xlink:href="#c" id="f" gradientUnits="userSpaceOnUse" gradientTransform="translate(-20.25 5.53)" x1="5.082" y1="1040.363" x2="5.082" y2="1050.375"/><linearGradient id="c"><stop offset="0" stop-color="#8f8f8f"/><stop offset="1" stop-color="#b0b0b0"/></linearGradient><linearGradient xlink:href="#d" id="g" gradientUnits="userSpaceOnUse" gradientTransform="translate(21.59 5.13)" x1="4.64" y1="1039.347" x2="4.64" y2="1051.369"/><linearGradient id="d"><stop offset="0" stop-color="#c8c8c8"/><stop offset="1" stop-color="#b0b0b0"/></linearGradient><linearGradient xlink:href="#c" id="h" gradientUnits="userSpaceOnUse" gradientTransform="translate(21.59 5.13)" x1="5.082" y1="1040.363" x2="5.082" y2="1050.375"/></defs><g fill-rule="evenodd"><path d="M14 11H0V0h9.406l.156.156L12 2.594l2 2V11z" fill-opacity=".51"/><path d="M-19.25 1044.906v12h9v-9.406l-2.594-2.594h-6.406z" fill="url(#e)" transform="matrix(0 -1 -1 0 1057.906 -9.25)"/><path d="M-18.25 1045.906v10h7v-9.406l-.594-.594h-6.406z" fill="url(#f)" transform="matrix(0 -1 -1 0 1057.906 -9.25)"/><path d="M14 5H8V0h1.406L14 4.594V5z" fill-opacity=".51"/><path d="M12.013 4h-3V1l3 3z" fill="#b0b0b0"/><g><path d="M17 13H3V2h9.406l.156.156L15 4.594l2 2V13z" fill-opacity=".51"/><path d="M22.59 1044.506v12h9v-9.406l-2.593-2.594H22.59z" fill="url(#g)" transform="matrix(0 -1 -1 0 1060.506 34.59)"/><path d="M23.59 1045.506v10h7v-9.406l-.593-.594H23.59z" fill="url(#h)" transform="matrix(0 -1 -1 0 1060.506 34.59)"/><path d="M17 7h-6V2h1.406L17 6.592V7z" fill-opacity=".51"/><path d="M15.013 6h-3V3l3 3z" fill="#b0b0b0"/></g></g></svg>