<svg xmlns="http://www.w3.org/2000/svg" width="32" height="32" viewBox="0 0 32 32.000001"><g fill-rule="evenodd"><path fill="#00aced" d="M0 0h32v32H0z"/><path d="M19.36 8.375c-.673.01-.888.065-1.353.283-.777.364-1.52 1.106-1.88 1.88-.223.478-.293.81-.324 1.557l-.04.946-.653-.062c-1.04-.1-2.283-.46-3.347-.973-1.274-.613-2.09-1.174-3.043-2.09-.425-.408-.828-.74-.897-.74-.334 0-.607 1.865-.4 2.726.117.485.542 1.278.91 1.698.184.21.303.414.264.453-.04.04-.282.017-.54-.052-.26-.07-.534-.14-.61-.157-.224-.045-.11.85.193 1.52.322.716 1.09 1.526 1.777 1.878.28.144.48.31.446.367-.035.056-.3.103-.59.103-.578 0-.612.054-.35.563.48.934 1.398 1.672 2.4 1.928.33.084.57.208.57.29 0 .078-.384.346-.853.597-1.01.538-2.37.89-3.453.89-.427 0-.76.044-.76.103 0 .128.867.575 1.81.933 1.808.69 4.2.864 6.223.45a11.123 11.123 0 0 0 3.433-1.32c1.06-.615 2.937-2.52 3.594-3.642.968-1.656 1.508-3.384 1.64-5.253l.073-1.03.84-.87c1.064-1.1 1.1-1.26.2-.944-.25.09-.574.16-.72.16-.264 0-.262-.003.117-.422.405-.45.87-1.267.773-1.363-.032-.032-.307.05-.613.183-.307.132-.794.31-1.084.397-.52.155-.53.15-.966-.16-1.004-.717-1.317-.82-2.467-.82-.117 0-.224-.002-.32 0z" fill="#fff"/></g></svg>