<svg xmlns="http://www.w3.org/2000/svg" width="32" height="32" viewBox="0 0 32 32.000001"><path d="M19.307 8.347c-.673.01-.888.065-1.353.283-.776.364-1.52 1.106-1.88 1.88-.223.478-.292.81-.324 1.557l-.04.946-.653-.063c-1.04-.1-2.283-.46-3.347-.973-1.274-.613-2.09-1.173-3.043-2.09-.424-.408-.828-.74-.897-.74-.334 0-.607 1.866-.4 2.727.117.484.542 1.277.91 1.696.184.21.303.415.264.454-.04.04-.28.016-.54-.053-.26-.068-.533-.14-.61-.156-.224-.046-.11.847.193 1.52.322.715 1.09 1.524 1.777 1.877.28.145.48.31.446.367-.034.057-.3.104-.59.104-.578 0-.612.055-.35.564.48.932 1.4 1.67 2.4 1.927.33.085.57.208.57.29 0 .08-.384.347-.853.597-1.01.54-2.37.89-3.453.89-.427 0-.76.044-.76.104 0 .13.867.575 1.81.934 1.808.688 4.2.862 6.223.45a11.123 11.123 0 0 0 3.433-1.32c1.06-.616 2.938-2.52 3.594-3.643.968-1.655 1.508-3.383 1.64-5.253l.073-1.03.84-.87c1.065-1.098 1.1-1.26.2-.943-.25.088-.574.16-.72.16-.263 0-.26 0 .117-.423.405-.448.87-1.267.773-1.363-.03-.032-.307.052-.613.184-.307.133-.794.31-1.084.397-.52.155-.53.152-.966-.16-1.003-.716-1.316-.82-2.467-.82h-.32z" fill="#575757" fill-rule="evenodd"/></svg>