<svg xmlns="http://www.w3.org/2000/svg" xmlns:xlink="http://www.w3.org/1999/xlink" width="32" height="32" viewBox="0 0 32 32.000001"><defs><linearGradient xlink:href="#a" id="b" gradientUnits="userSpaceOnUse" x1="-585.383" y1="1000.339" x2="-583.363" y2="1414.502"/><linearGradient id="a"><stop offset="0" stop-color="#5f85aa"/><stop offset="1" stop-color="#3f6395"/></linearGradient></defs><path fill="none" d="M0 0h32v32H0z"/><g fill-rule="evenodd"><path fill="url(#b)" d="M-788.43 1001.077h414v414h-414z" transform="matrix(.0773 0 0 .0773 60.94 -77.378)"/><path d="M15.194 9.752c-.82.005-1.69.07-2.032.176-.372.114-.877.482-.877.638 0 .038.15.108.33.157.79.21.98.626 1.04 2.266.077 2.1-.22 3.102-.846 2.864-.6-.228-1.948-2.26-2.873-4.327-.572-1.278-.423-1.21-2.693-1.19-2.032.018-2.225.056-2.225.45 0 .194.91 2.2 1.49 3.277 2.658 4.953 4.702 7.124 7.43 7.887 1.08.303 2.903.412 3.4.204.353-.147.512-.4.513-.817.002-.47.198-1.372.348-1.6.068-.103.24-.242.383-.31.25-.12.273-.118.613.082.194.112.688.58 1.097 1.035.795.885 1.2 1.246 1.693 1.512.286.154.444.168 2.032.19 1.908.028 2.477-.04 2.773-.337.1-.1.182-.272.182-.382 0-.55-.805-1.615-2.382-3.147-1.157-1.125-1.298-1.346-1.147-1.8.093-.28.605-1.032 1.447-2.125 1.847-2.397 2.442-3.704 1.833-4.03-.12-.064-.803-.085-2.377-.074-2.57.02-2.36-.055-2.807.974-.476 1.096-.617 1.378-1.085 2.165-.913 1.532-1.658 2.388-2.04 2.342-.11-.013-.274-.124-.364-.244-.155-.21-.16-.306-.165-2.59C17.88 9.952 17.9 10 16.49 9.812c-.33-.044-.804-.063-1.296-.06z" fill="#fff"/></g></svg>