<svg xmlns="http://www.w3.org/2000/svg" width="32" height="32" viewBox="0 0 32 32.000001"><path d="M15.198 9.746c-.82.01-1.69.07-2.03.176-.373.115-.878.482-.878.638 0 .038.148.108.33.157.79.21.98.626 1.04 2.266.076 2.1-.22 3.103-.846 2.864-.6-.227-1.947-2.258-2.872-4.326-.572-1.276-.423-1.21-2.693-1.19-2.034.02-2.227.057-2.227.45 0 .196.912 2.2 1.49 3.28 2.658 4.95 4.703 7.123 7.43 7.885 1.08.302 2.903.41 3.4.203.353-.147.512-.398.513-.816.002-.47.198-1.37.348-1.6.067-.103.24-.242.382-.31.25-.12.273-.118.613.082.193.114.687.58 1.096 1.036.795.886 1.2 1.247 1.693 1.512.285.154.443.168 2.03.19 1.908.028 2.478-.04 2.774-.337.1-.1.18-.272.18-.382 0-.55-.805-1.614-2.38-3.146-1.158-1.126-1.3-1.347-1.148-1.8.093-.28.604-1.032 1.447-2.125 1.846-2.398 2.44-3.705 1.833-4.03-.122-.065-.803-.086-2.377-.075-2.57.018-2.36-.056-2.808.973-.475 1.096-.616 1.378-1.084 2.164-.914 1.534-1.66 2.39-2.042 2.343-.11-.013-.273-.123-.362-.243-.157-.21-.163-.306-.167-2.59-.006-3.046.014-2.998-1.395-3.186a10.06 10.06 0 0 0-1.297-.06z" fill="#575757" fill-rule="evenodd"/></svg>